<svg width="25" height="27" viewBox="0 0 25 27"  xmlns="http://www.w3.org/2000/svg">
<path d="M23.5723 6.64453H14.6074V1.58203C14.6074 0.709648 13.8978 0 13.0254 0H10.125C9.83373 0 9.59766 0.236069 9.59766 0.527344C9.59766 0.818619 9.83373 1.05469 10.125 1.05469H13.0254C13.3163 1.05469 13.5527 1.29117 13.5527 1.58203V3.16406H1.95117V1.58203C1.95117 1.29117 2.18765 1.05469 2.47852 1.05469H5.37891C5.67018 1.05469 5.90625 0.818619 5.90625 0.527344C5.90625 0.236069 5.67018 0 5.37891 0H2.47852C1.60613 0 0.896484 0.709648 0.896484 1.58203V25.418C0.896484 26.2904 1.60613 27 2.47852 27H13.0254C13.8978 27 14.6074 26.2904 14.6074 25.418V16.6641H23.5723C23.8635 16.6641 24.0996 16.428 24.0996 16.1367V7.17188L24.0994 7.16879C24.098 6.8773 23.8596 6.64453 23.5723 6.64453ZM16.7168 12.2818L11.301 7.69922H22.1326L16.7168 12.2818ZM13.0254 25.9453H2.47852C2.18765 25.9453 1.95117 25.7088 1.95117 25.418V22.7813H13.5527V25.418C13.5527 25.7088 13.3163 25.9453 13.0254 25.9453ZM13.5527 21.7266H1.95117V4.21875H13.5527V6.64453H9.86133C9.57129 6.64453 9.33398 6.88142 9.33398 7.17188V16.1367C9.33398 16.428 9.57005 16.6641 9.86133 16.6641H13.5527V21.7266ZM10.3887 15.6094V8.30896L13.9392 11.3132L11.5979 13.6545C11.3919 13.8605 11.3919 14.1942 11.5979 14.4002C11.8038 14.6062 12.1376 14.6062 12.3436 14.4002L14.7166 12.0271C14.7269 12.0171 14.7362 12.0063 14.7454 11.9954L16.3761 13.3752C16.4745 13.4584 16.5957 13.5 16.7168 13.5C16.8379 13.5 16.959 13.4584 17.0575 13.3752L18.6882 11.9954C18.6974 12.0061 18.7067 12.0171 18.717 12.0271L21.09 14.4002C21.296 14.6062 21.6297 14.6062 21.8357 14.4002C22.0417 14.1942 22.0417 13.8605 21.8357 13.6545L19.4944 11.313L23.0449 8.30896V15.6094H10.3887Z" />
<path d="M8.2793 23.8359H7.22461C6.93333 23.8359 6.69727 24.072 6.69727 24.3633C6.69727 24.6546 6.93333 24.8906 7.22461 24.8906H8.2793C8.57057 24.8906 8.80664 24.6546 8.80664 24.3633C8.80664 24.072 8.57057 23.8359 8.2793 23.8359Z" />
</svg>
