<svg width="198" height="30" viewBox="0 0 198 30"  xmlns="http://www.w3.org/2000/svg">
<path d="M9.74339 26.2L8.79201 27.6667L10.1042 27.8333L9.74339 26.2ZM13.3848 27.4667L10.1042 26.0667L10.5307 27.8667L13.3848 27.4667ZM15.1564 14.7333L14.5003 11.9667L14.4674 11.9333H14.2378V13.5333L15.1564 14.7333ZM14.5659 23.7333L10.2683 25.7333L13.9754 27.3333L15.4188 24.8L14.5659 23.7333ZM16.567 22.8L14.9267 23.5667L15.6485 24.4333L16.567 22.8ZM15.1892 9.03333L14.8611 11.5L17.1903 10.3667L15.1892 9.03333ZM17.3872 9.13332L15.7797 8.96666L17.3872 10.0333V9.13332ZM18.4698 7.13332L16.7639 6.03332L15.3204 8.59999L17.4528 8.79999L18.4698 7.13332ZM19.7492 4.79999L17.0919 5.79999L18.601 6.76666L19.7492 4.79999ZM19.8148 25.6333L17.0591 22.6667L14.4674 27.2333L19.8148 25.6333ZM20.2413 20.8H20.1429L18.0433 19.9667L18.0105 19.9333L17.2232 18.9667V22.3333L20.1757 25.5L23.1938 22.3333V18.9667L22.4065 19.9C22.4065 19.9333 22.3737 19.9333 22.3409 19.9667L20.3069 20.8C20.3069 20.7667 20.2741 20.7667 20.2413 20.8ZM20.2413 13.2L19.5524 14.7333H20.9302L20.2413 13.2ZM21.3239 15.0667L21.2911 15.1H19.1915C19.1587 15.1 19.1587 15.0667 19.1259 15.0333C19.0931 15 19.0931 15 19.0931 14.9667V14.8L20.0445 12.6333L21.2583 10.1L17.584 10.6L14.8283 11.9333L15.6813 15.4667L15.7469 15.6667L16.6326 17.6333L17.1247 18.2333L18.2073 19.5667L20.2085 20.3667L22.1441 19.5667L23.2267 18.2333L23.7187 17.6333L24.6045 15.6667L24.6373 15.4667V15.4333L25.4575 11.9667L20.4381 12.8667L21.3239 14.8333V15C21.3567 15.0333 21.3567 15.0333 21.3239 15.0667ZM18.7978 7.29999L17.748 9.03333V10.2L21.4879 9.69999L21.816 8.83333L18.7978 7.29999ZM22.9314 23.1L20.5366 25.6L21.9472 26.0333L22.9314 23.1ZM23.0626 5.73332L20.2741 4.69999L19.0603 6.76666L23.0626 5.73332ZM23.3251 6.03332L19.2243 7.09999L22.0128 8.49999L23.3251 6.03332ZM25.031 8.53333L23.6859 6.13332L22.3737 8.53333H25.031ZM25.1294 11.6667L21.7176 10.1L20.5694 12.4667L25.1294 11.6667ZM25.4903 23.5667L23.85 22.8L24.8013 24.4333L25.4903 23.5667ZM25.195 8.93332H22.1769L21.8488 9.79999L25.5231 11.4667L25.195 8.93332ZM26.1464 11.9333H25.9167L25.8839 11.9667L25.2278 14.7L26.1464 13.5333V11.9333ZM9.44813 28.9333L10.0058 28.2L8.62798 28.0333L8.49676 28.5333C6.11395 27.4152 4.07103 25.6663 2.58211 23.4701C1.0932 21.2739 0.213105 18.7112 0.0340804 16.0506C-0.144944 13.3899 0.38369 10.7294 1.56458 8.3477C2.74547 5.96603 4.53513 3.95096 6.74599 2.51369C8.95685 1.07642 11.5075 0.269872 14.1306 0.17858C16.7537 0.0872878 19.3527 0.714612 21.6552 1.9948C23.9576 3.275 25.8788 5.16092 27.2173 7.45491C28.5558 9.7489 29.2624 12.3665 29.263 15.0333C29.275 18.2706 28.2374 21.4219 26.3104 24L25.7855 23.7667L24.9326 24.8333L25.2278 25.3333C25.1488 25.4304 25.0609 25.5197 24.9654 25.6L23.4235 22.8667L22.2753 26.2L23.8172 26.6667C23.7049 26.7663 23.5842 26.8555 23.4563 26.9333L22.1112 26.5333L20.963 28.4667C20.7725 28.5694 20.5752 28.6585 20.3725 28.7333L21.7504 26.4333L20.3397 26V28.7667C20.2085 28.8333 20.1101 28.8667 19.9789 28.9333V27.2333L19.4868 29.1333C19.3555 29.1667 19.2243 29.2333 19.0603 29.2667L19.8804 26.0667L14.2378 27.7667V28.3333L15.7141 29.9333C15.55 29.9333 15.386 29.9667 15.222 29.9667L14.2378 28.9V30H13.8769V28.9L12.7943 29.9C12.6303 29.8667 12.4663 29.8667 12.3351 29.8333L13.8769 28.3667V27.9L10.662 28.3333L11.5149 29.6667C11.3364 29.638 11.1608 29.5934 10.99 29.5333L10.3339 28.5L9.809 29.2C9.77063 29.1323 9.71867 29.0736 9.65649 29.0276C9.59432 28.9817 9.52333 28.9496 9.44813 28.9333Z" fill="url(#paint0_linear)"/>
<path d="M32.3795 6.79998H37.5301L41.8933 18.3666H41.9917L46.3549 6.79998H51.4726V24.5333H47.5687V13.4667H45.4691L49.7995 7.29998L43.1727 24.5H40.6466L33.987 7.29998L38.3174 13.4667H36.2834V24.5333H32.3795V6.79998Z" fill="url(#paint1_linear)"/>
<path d="M55.0485 28.8C54.7284 28.7812 54.4102 28.7366 54.0971 28.6666V25.5C54.292 25.5444 54.4891 25.5778 54.6876 25.6C54.9709 25.6298 55.2558 25.6409 55.5406 25.6333C55.9157 25.6582 56.2903 25.5774 56.6232 25.4C56.7506 25.3309 56.8629 25.2362 56.9532 25.1216C57.0434 25.007 57.1097 24.8748 57.148 24.7333L57.2465 24.4666L52.7192 11.1H57.4433L60.0022 22.0333L59.5429 21.2H60.2318L59.7397 22.0333L62.2658 11.1H66.793L62.5938 24.4C62.3295 25.3963 61.8473 26.3192 61.1832 27.1C60.6174 27.7323 59.8909 28.1936 59.0836 28.4333C58.1582 28.7153 57.1955 28.8502 56.2295 28.8333C55.836 28.8727 55.4392 28.8615 55.0485 28.8Z" fill="url(#paint2_linear)"/>
<path d="M67.81 11.1333H72.1076V13.5H72.206C72.5027 12.6776 73.0521 11.9742 73.773 11.4939C74.4939 11.0136 75.3478 10.7819 76.2083 10.8333C77.6518 10.8333 78.7672 11.2666 79.5545 12.1666C80.3419 13.0666 80.7356 14.3 80.7356 15.8666V24.4666H76.438V16.8C76.4808 16.1555 76.2946 15.5167 75.9131 15C75.7149 14.7802 75.4702 14.6091 75.1974 14.4994C74.9246 14.3897 74.6309 14.3443 74.3384 14.3666C73.9201 14.3493 73.5069 14.4659 73.1574 14.7C72.8164 14.9088 72.5515 15.2247 72.4028 15.6C72.2089 16.0039 72.1187 16.4511 72.1404 16.9V24.5H67.8428V11.1333H67.81Z" fill="url(#paint3_linear)"/>
<path d="M84.9019 23.8334C84.1474 23.2 83.7865 22.1 83.7865 20.6V14.3334H81.9822V11.1334H83.7865V8.0667H88.0841V11.1334H90.4461V14.3334H88.0841V20.0334C88.0653 20.2552 88.0905 20.4787 88.1581 20.6905C88.2257 20.9024 88.3344 21.0983 88.4778 21.2667C88.8044 21.5258 89.2122 21.656 89.626 21.6334C89.7798 21.6401 89.9339 21.6289 90.0853 21.6C90.2165 21.6 90.3149 21.5667 90.4461 21.5667V24.6667C90.2165 24.7 89.9212 24.7334 89.5932 24.7667C89.2651 24.8 88.8715 24.8 88.4122 24.8C86.8375 24.8 85.6565 24.4667 84.9019 23.8334Z" fill="url(#paint4_linear)"/>
<path d="M94.8421 23.9666C93.8606 23.4141 93.0616 22.5791 92.5457 21.5666C91.9914 20.4047 91.7214 19.124 91.7584 17.8333C91.7247 16.5536 91.9948 15.2845 92.5457 14.1333C93.0492 13.1228 93.8371 12.2873 94.8093 11.7333C95.8762 11.1496 97.0757 10.8622 98.2868 10.9C99.4878 10.8586 100.678 11.1465 101.731 11.7333C102.693 12.2711 103.48 13.0819 103.995 14.0666C104.543 15.1596 104.813 16.374 104.782 17.6V18.8666H93.8252V16.3H102.781L100.78 18.7333V17.0666C100.793 16.4966 100.692 15.9298 100.485 15.4C100.312 14.9744 100.014 14.6135 99.6318 14.3666C99.2403 14.1425 98.7973 14.0275 98.348 14.0334C97.8986 14.0392 97.4587 14.1657 97.073 14.4C96.6906 14.6469 96.3927 15.0078 96.22 15.4333C96.0125 15.9514 95.912 16.5074 95.9247 17.0666V18.7666C95.912 19.3259 96.0125 19.8818 96.22 20.4C96.3941 20.8348 96.7057 21.1984 97.1058 21.4333C97.5243 21.6789 98.0003 21.8056 98.4836 21.8C98.8898 21.8162 99.2941 21.7363 99.6646 21.5666C99.9548 21.4533 100.214 21.2704 100.419 21.0333C100.594 20.867 100.729 20.6616 100.813 20.4333V20.4H104.684L104.651 20.5333C104.532 21.0458 104.344 21.5393 104.093 22C103.79 22.5384 103.403 23.0226 102.945 23.4333C102.402 23.8992 101.779 24.2606 101.108 24.5C100.24 24.7877 99.3306 24.923 98.418 24.9C97.1723 24.8649 95.9503 24.5459 94.8421 23.9666Z" fill="url(#paint5_linear)"/>
<path d="M106.488 6.79998H110.786V24.5333H106.488V6.79998Z" fill="url(#paint6_linear)"/>
<path d="M112.984 6.79998H117.281V24.5333H112.984V6.79998Z" fill="url(#paint7_linear)"/>
<path d="M120.037 9.06667C119.838 8.87341 119.679 8.64052 119.572 8.38248C119.465 8.12444 119.411 7.84676 119.414 7.56667C119.405 7.28572 119.456 7.00611 119.563 6.74715C119.671 6.48818 119.833 6.25601 120.037 6.06667C120.238 5.86013 120.479 5.69744 120.744 5.58855C121.009 5.47965 121.293 5.42684 121.579 5.43334C121.87 5.42364 122.16 5.47485 122.431 5.5838C122.702 5.69275 122.948 5.85711 123.154 6.06667C123.353 6.25994 123.512 6.49282 123.619 6.75086C123.726 7.0089 123.78 7.28659 123.777 7.56667C123.782 7.84713 123.73 8.12562 123.622 8.38404C123.515 8.64246 123.355 8.87504 123.154 9.06667C122.948 9.27624 122.702 9.4406 122.431 9.54955C122.16 9.6585 121.87 9.70971 121.579 9.70001C121.293 9.70651 121.009 9.6537 120.744 9.5448C120.479 9.4359 120.238 9.27321 120.037 9.06667ZM119.447 11.1333H123.744V24.5H119.447V11.1333Z" fill="url(#paint8_linear)"/>
<path d="M128.96 28.5666C128.115 28.2935 127.349 27.8126 126.73 27.1666C126.197 26.6301 125.861 25.9242 125.778 25.1666V25.0666H129.912L129.945 25.1333C130.109 25.4561 130.374 25.7141 130.699 25.8666C131.197 26.1189 131.751 26.2338 132.307 26.2C132.957 26.2494 133.602 26.0469 134.111 25.6333C134.308 25.4525 134.466 25.2313 134.573 24.9843C134.681 24.7373 134.736 24.47 134.734 24.2V21.9666H134.636C134.447 22.4282 134.142 22.8307 133.75 23.1333C133.337 23.4664 132.871 23.7257 132.372 23.9C131.809 24.0773 131.223 24.1672 130.633 24.1666C129.641 24.1874 128.662 23.9216 127.812 23.4C127.005 22.864 126.385 22.0823 126.041 21.1666C125.59 20.0466 125.378 18.8425 125.417 17.6333C125.379 16.3808 125.591 15.1334 126.041 13.9666C126.395 13.016 127.037 12.204 127.874 11.647C128.711 11.0901 129.7 10.8169 130.699 10.8666C131.281 10.8602 131.859 10.9619 132.405 11.1666C132.909 11.3707 133.367 11.6769 133.75 12.0666C134.134 12.4563 134.435 12.9213 134.636 13.4333H134.734V11.1333H139.032V24.1333C139.052 25.0585 138.763 25.9634 138.212 26.7C137.609 27.4867 136.802 28.087 135.882 28.4333C134.744 28.884 133.528 29.0993 132.307 29.0666C131.17 29.1221 130.033 28.9523 128.96 28.5666ZM133.586 20.7333C133.973 20.4337 134.268 20.0293 134.439 19.5666C134.649 18.9911 134.749 18.3802 134.734 17.7666C134.755 17.1495 134.643 16.5352 134.406 15.9666C134.236 15.504 133.94 15.0996 133.553 14.8C133.164 14.5392 132.707 14.4002 132.241 14.4002C131.775 14.4002 131.318 14.5392 130.929 14.8C130.542 15.0936 130.237 15.4841 130.043 15.9333C129.833 16.5089 129.733 17.1197 129.748 17.7333C129.733 18.3469 129.833 18.9577 130.043 19.5333C130.214 20.005 130.523 20.4122 130.929 20.7C131.316 20.9658 131.774 21.1054 132.241 21.1C132.717 21.1381 133.192 21.0087 133.586 20.7333Z" fill="url(#paint9_linear)"/>
<path d="M143.789 23.9666C142.807 23.4141 142.008 22.5791 141.492 21.5666C140.938 20.4047 140.668 19.124 140.705 17.8333C140.671 16.5536 140.941 15.2845 141.492 14.1333C141.996 13.1228 142.784 12.2873 143.756 11.7333C144.823 11.1496 146.022 10.8622 147.233 10.9C148.434 10.8586 149.624 11.1465 150.678 11.7333C151.64 12.2711 152.426 13.0819 152.942 14.0666C153.489 15.1596 153.76 16.374 153.729 17.6V18.8666H142.772V16.3H151.728L149.727 18.7333V17.0666C149.739 16.4966 149.639 15.9298 149.431 15.4C149.259 14.9744 148.961 14.6135 148.578 14.3666C148.187 14.1425 147.744 14.0275 147.295 14.0334C146.845 14.0392 146.405 14.1657 146.019 14.4C145.637 14.6469 145.339 15.0078 145.167 15.4333C144.959 15.9514 144.859 16.5074 144.871 17.0666V18.7666C144.859 19.3259 144.959 19.8818 145.167 20.4C145.341 20.8348 145.652 21.1984 146.052 21.4333C146.471 21.6789 146.947 21.8056 147.43 21.8C147.836 21.8162 148.241 21.7363 148.611 21.5666C148.901 21.4533 149.16 21.2704 149.366 21.0333C149.541 20.867 149.676 20.6616 149.759 20.4333V20.4H153.63L153.598 20.5333C153.479 21.0458 153.291 21.5393 153.04 22C152.737 22.5384 152.349 23.0226 151.892 23.4333C151.348 23.8992 150.726 24.2606 150.055 24.5C149.187 24.7877 148.277 24.923 147.365 24.9C146.12 24.8562 144.9 24.5378 143.789 23.9666Z" fill="url(#paint10_linear)"/>
<path d="M155.402 11.1333H159.7V13.5H159.798C160.095 12.6776 160.644 11.9742 161.365 11.4939C162.086 11.0136 162.94 10.7819 163.8 10.8333C165.244 10.8333 166.359 11.2666 167.147 12.1666C167.934 13.0666 168.328 14.3 168.328 15.8666V24.4666H164.03V16.8C164.073 16.1555 163.887 15.5167 163.505 15C163.307 14.7802 163.062 14.6091 162.789 14.4994C162.517 14.3897 162.223 14.3443 161.93 14.3666C161.512 14.3493 161.099 14.4659 160.749 14.7C160.408 14.9088 160.144 15.2247 159.995 15.6C159.801 16.0039 159.711 16.4511 159.732 16.9V24.5H155.435V11.1333H155.402Z" fill="url(#paint11_linear)"/>
<path d="M173.019 23.9667C172.028 23.4155 171.218 22.5811 170.69 21.5667C170.127 20.4064 169.846 19.1264 169.869 17.8333C169.83 16.5493 170.112 15.2762 170.69 14.1333C171.215 13.1282 172.012 12.2958 172.986 11.7333C174.075 11.1465 175.297 10.8592 176.529 10.9C177.651 10.8724 178.763 11.1121 179.777 11.6C180.667 12.0263 181.42 12.7004 181.949 13.5441C182.477 14.3879 182.759 15.3666 182.762 16.3667V16.4667H178.825V16.3333C178.782 15.7651 178.537 15.2321 178.137 14.8333C177.939 14.6333 177.703 14.4767 177.444 14.3735C177.184 14.2702 176.906 14.2225 176.627 14.2333C176.164 14.2181 175.71 14.3718 175.348 14.6667C174.97 14.9948 174.686 15.4211 174.528 15.9C174.316 16.5327 174.216 17.1985 174.233 17.8667C174.219 18.5455 174.319 19.2218 174.528 19.8667C174.678 20.3499 174.963 20.7784 175.348 21.1C175.758 21.4034 176.258 21.5555 176.765 21.5313C177.272 21.507 177.756 21.3079 178.137 20.9667C178.519 20.5419 178.76 20.0054 178.825 19.4333L178.858 19.3H182.795V19.3667C182.775 20.3535 182.504 21.3182 182.008 22.1667C181.496 23.0073 180.755 23.679 179.875 24.1C178.854 24.6032 177.73 24.8544 176.595 24.8333C175.351 24.843 174.124 24.5456 173.019 23.9667Z" fill="url(#paint12_linear)"/>
<path d="M187.06 23.9666C186.078 23.4141 185.279 22.5791 184.763 21.5666C184.209 20.4047 183.939 19.124 183.976 17.8333C183.942 16.5536 184.212 15.2845 184.763 14.1333C185.267 13.1228 186.055 12.2873 187.027 11.7333C188.094 11.1496 189.293 10.8622 190.504 10.9C191.705 10.8586 192.895 11.1465 193.949 11.7333C194.911 12.2711 195.697 13.0819 196.213 14.0666C196.76 15.1596 197.031 16.374 197 17.6V18.8666H186.043V16.3H194.999L192.998 18.7333V17.0666C193.01 16.4966 192.91 15.9298 192.702 15.4C192.53 14.9744 192.232 14.6135 191.849 14.3666C191.458 14.1425 191.015 14.0275 190.566 14.0334C190.116 14.0392 189.676 14.1657 189.291 14.4C188.908 14.6469 188.61 15.0078 188.438 15.4333C188.23 15.9514 188.13 16.5074 188.142 17.0666V18.7666C188.13 19.3259 188.23 19.8818 188.438 20.4C188.612 20.8348 188.923 21.1984 189.323 21.4333C189.742 21.6789 190.218 21.8056 190.701 21.8C191.107 21.8162 191.512 21.7363 191.882 21.5666C192.173 21.4533 192.431 21.2704 192.637 21.0333C192.812 20.867 192.947 20.6616 193.031 20.4333V20.4H196.902L196.869 20.5333C196.75 21.0458 196.562 21.5393 196.311 22C196.008 22.5384 195.62 23.0226 195.163 23.4333C194.619 23.8992 193.997 24.2606 193.326 24.5C192.458 24.7877 191.548 24.923 190.636 24.9C189.391 24.8605 188.169 24.5418 187.06 23.9666Z" fill="url(#paint13_linear)"/>
<path d="M8.79201 27.6667L9.74339 26.2L10.1042 27.8333L8.79201 27.6667ZM10.0715 26.0667L13.3521 27.4667L10.4651 27.8333L10.0715 26.0667ZM10.2683 25.7333L14.5659 23.7333L15.4188 24.8L13.9754 27.3333L10.2683 25.7333ZM20.5366 25.6333L22.9314 23.1333L21.9144 26.0667L20.5366 25.6333ZM14.9267 23.5667L16.567 22.8L15.6157 24.4333L14.9267 23.5667ZM23.8172 22.8L25.4575 23.5667L24.7357 24.4333L23.8172 22.8ZM17.0591 22.7L19.8148 25.6667L14.4675 27.2667L17.0591 22.7ZM20.2741 20.8L22.3081 19.9667L22.3409 19.9667C22.3737 19.9667 22.3737 19.9333 22.4065 19.9L23.1938 18.9667V22.3333L20.1757 25.5L17.2232 22.3333V18.9667L18.0105 19.9333L18.0433 19.9667L20.1429 20.8L20.2741 20.8ZM20.2413 13.2L20.9302 14.7667H19.5524L20.2413 13.2ZM14.2706 13.5333V11.9333H14.5003L14.5331 11.9667L15.1892 14.7333L14.2706 13.5333ZM25.8839 11.9667L25.9167 11.9333H26.1464V13.5333L25.2278 14.7L25.8839 11.9667ZM21.7176 10.1333L25.1294 11.7L20.5694 12.5333L21.7176 10.1333ZM18.2401 19.6L17.1576 18.2667L16.6655 17.6667L15.7797 15.7L15.7141 15.5L14.8611 11.9667L17.6168 10.6333L21.2911 10.1333L20.0773 12.6667L19.1259 14.8333V15C19.1259 15.0333 19.1259 15.0667 19.1587 15.0667C19.1915 15.0667 19.1915 15.1 19.2243 15.1333H21.3239L21.3895 15.0667V14.9667C21.3895 14.9333 21.3895 14.9 21.3567 14.9L20.471 12.9333L25.4903 12.0333L24.6701 15.5V15.5333L24.6373 15.7333L23.7516 17.7L23.2595 18.3L22.1769 19.6333L20.2413 20.4333L18.2401 19.6ZM15.1892 9.03333L17.1903 10.3667L14.8611 11.5L15.1892 9.03333ZM15.7797 9L17.3872 9.16667V10.1L15.7797 9ZM21.8488 9.76667L22.1769 8.9H25.195L25.5231 11.4333L21.8488 9.76667ZM17.748 9.03333L18.7978 7.29999L21.8488 8.83333L21.5207 9.7L17.7809 10.2V9.03333L17.748 9.03333ZM23.6859 6.13332L25.031 8.53333H22.3737L23.6859 6.13332ZM19.2243 7.09999L23.3251 6.03332L22.0128 8.46667L19.2243 7.09999ZM15.3532 8.56667L16.7967 6L18.5026 7.1L17.5184 8.76667L15.3532 8.56667ZM17.1247 5.8L19.782 4.8L18.6338 6.76667L17.1247 5.8ZM20.2741 4.66667L23.0626 5.7L19.0603 6.73333L20.2741 4.66667ZM1.526e-05 15C0.00261172 17.8391 0.803801 20.6183 2.30918 23.0101C3.81456 25.4019 5.96141 27.3067 8.49677 28.5L8.62799 28L10.0058 28.1667L9.44814 28.9C9.57936 28.9333 9.67778 29 9.80901 29.0333L10.3339 28.3333L10.99 29.3667C11.1541 29.4 11.3181 29.4667 11.5149 29.5L10.662 28.1667L13.877 27.7333V28.2L12.3351 29.6667C12.4991 29.7 12.6631 29.7 12.7944 29.7333L13.877 28.7333V29.8333H14.2378V28.7333L15.222 29.8C15.3867 29.8055 15.5516 29.7943 15.7141 29.7667L14.2378 28.1667V27.6L19.8804 25.9L19.0603 29.1C19.1915 29.0667 19.3556 29 19.4868 28.9667L19.9789 27.0667V28.7667C20.1073 28.7316 20.2292 28.6753 20.3397 28.6V25.8333L21.7504 26.2667L20.3725 28.5667C20.5694 28.4667 20.7662 28.4 20.963 28.3L22.1113 26.3667L23.4563 26.7667C23.5685 26.667 23.6893 26.5778 23.8172 26.5L22.2753 26.0333L23.4235 22.7L24.9654 25.4333C25.0444 25.3362 25.1323 25.247 25.2278 25.1667L24.9326 24.6667L25.7855 23.6L26.3104 23.8333C27.9488 21.6256 28.9492 18.9976 29.1994 16.2442C29.4496 13.4909 28.9396 10.7212 27.7266 8.24597C26.5137 5.77077 24.6459 3.688 22.3328 2.23144C20.0197 0.774878 17.3528 0.00215629 14.6315 0C10.7457 0.0566636 7.03664 1.65938 4.30096 4.46397C1.56527 7.26856 0.021086 11.0514 1.526e-05 15Z" fill="url(#paint14_linear)"/>
<defs>
<linearGradient id="paint0_linear" x1="-100" y1="19.5" x2="231.895" y2="14.0757" gradientUnits="userSpaceOnUse">
<stop stop-color="#1A44C7"/>
<stop offset="0.630666" stop-color="#8626DE"/>
<stop offset="1" stop-color="#D526FA"/>
</linearGradient>
<linearGradient id="paint1_linear" x1="-100" y1="19.5" x2="231.895" y2="14.0757" gradientUnits="userSpaceOnUse">
<stop stop-color="#1A44C7"/>
<stop offset="0.630666" stop-color="#8626DE"/>
<stop offset="1" stop-color="#D526FA"/>
</linearGradient>
<linearGradient id="paint2_linear" x1="-100" y1="19.5" x2="231.895" y2="14.0757" gradientUnits="userSpaceOnUse">
<stop stop-color="#1A44C7"/>
<stop offset="0.630666" stop-color="#8626DE"/>
<stop offset="1" stop-color="#D526FA"/>
</linearGradient>
<linearGradient id="paint3_linear" x1="-100" y1="19.5" x2="231.895" y2="14.0757" gradientUnits="userSpaceOnUse">
<stop stop-color="#1A44C7"/>
<stop offset="0.630666" stop-color="#8626DE"/>
<stop offset="1" stop-color="#D526FA"/>
</linearGradient>
<linearGradient id="paint4_linear" x1="-100" y1="19.5" x2="231.895" y2="14.0757" gradientUnits="userSpaceOnUse">
<stop stop-color="#1A44C7"/>
<stop offset="0.630666" stop-color="#8626DE"/>
<stop offset="1" stop-color="#D526FA"/>
</linearGradient>
<linearGradient id="paint5_linear" x1="-100" y1="19.5" x2="231.895" y2="14.0757" gradientUnits="userSpaceOnUse">
<stop stop-color="#1A44C7"/>
<stop offset="0.630666" stop-color="#8626DE"/>
<stop offset="1" stop-color="#D526FA"/>
</linearGradient>
<linearGradient id="paint6_linear" x1="-100" y1="19.5" x2="231.895" y2="14.0757" gradientUnits="userSpaceOnUse">
<stop stop-color="#1A44C7"/>
<stop offset="0.630666" stop-color="#8626DE"/>
<stop offset="1" stop-color="#D526FA"/>
</linearGradient>
<linearGradient id="paint7_linear" x1="-100" y1="19.5" x2="231.895" y2="14.0757" gradientUnits="userSpaceOnUse">
<stop stop-color="#1A44C7"/>
<stop offset="0.630666" stop-color="#8626DE"/>
<stop offset="1" stop-color="#D526FA"/>
</linearGradient>
<linearGradient id="paint8_linear" x1="-100" y1="19.5" x2="231.895" y2="14.0757" gradientUnits="userSpaceOnUse">
<stop stop-color="#1A44C7"/>
<stop offset="0.630666" stop-color="#8626DE"/>
<stop offset="1" stop-color="#D526FA"/>
</linearGradient>
<linearGradient id="paint9_linear" x1="-100" y1="19.5" x2="231.895" y2="14.0757" gradientUnits="userSpaceOnUse">
<stop stop-color="#1A44C7"/>
<stop offset="0.630666" stop-color="#8626DE"/>
<stop offset="1" stop-color="#D526FA"/>
</linearGradient>
<linearGradient id="paint10_linear" x1="-100" y1="19.5" x2="231.895" y2="14.0757" gradientUnits="userSpaceOnUse">
<stop stop-color="#1A44C7"/>
<stop offset="0.630666" stop-color="#8626DE"/>
<stop offset="1" stop-color="#D526FA"/>
</linearGradient>
<linearGradient id="paint11_linear" x1="-100" y1="19.5" x2="231.895" y2="14.0757" gradientUnits="userSpaceOnUse">
<stop stop-color="#1A44C7"/>
<stop offset="0.630666" stop-color="#8626DE"/>
<stop offset="1" stop-color="#D526FA"/>
</linearGradient>
<linearGradient id="paint12_linear" x1="-100" y1="19.5" x2="231.895" y2="14.0757" gradientUnits="userSpaceOnUse">
<stop stop-color="#1A44C7"/>
<stop offset="0.630666" stop-color="#8626DE"/>
<stop offset="1" stop-color="#D526FA"/>
</linearGradient>
<linearGradient id="paint13_linear" x1="-100" y1="19.5" x2="231.895" y2="14.0757" gradientUnits="userSpaceOnUse">
<stop stop-color="#1A44C7"/>
<stop offset="0.630666" stop-color="#8626DE"/>
<stop offset="1" stop-color="#D526FA"/>
</linearGradient>
<linearGradient id="paint14_linear" x1="-100" y1="19.5" x2="231.895" y2="14.0757" gradientUnits="userSpaceOnUse">
<stop stop-color="#1A44C7"/>
<stop offset="0.630666" stop-color="#8626DE"/>
<stop offset="1" stop-color="#D526FA"/>
</linearGradient>
</defs>
</svg>
