<svg width="27" height="25" viewBox="0 0 27 25"  xmlns="http://www.w3.org/2000/svg">
<path d="M13.4999 5.49023C13.3001 5.49023 13.1176 5.60312 13.0282 5.78172L11.5224 8.79355L9.22558 4.19968C9.13618 4.02109 8.95367 3.9082 8.75385 3.9082C8.55404 3.9082 8.37153 4.02109 8.28213 4.19968L3.53603 13.6919C3.36115 14.0419 3.61596 14.4551 4.00776 14.4551H17.455C17.8462 14.4551 18.1021 14.0425 17.9268 13.6919L13.9717 5.78172C13.8823 5.60312 13.6998 5.49023 13.4999 5.49023ZM4.86099 13.4004L8.75385 5.61465L12.6467 13.4004H4.86099ZM13.8258 13.4004L12.112 9.97266L13.4999 7.19669L16.6018 13.4004H13.8258Z" />
<path d="M23.3086 8.12695C23.5999 8.12695 23.8359 7.89088 23.8359 7.59961C23.8359 7.30833 23.5999 7.07227 23.3086 7.07227H18.2461C17.9548 7.07227 17.7188 7.30833 17.7188 7.59961C17.7188 7.89088 17.9548 8.12695 18.2461 8.12695H23.3086Z" />
<path d="M23.3086 3.9082H18.2461C17.9548 3.9082 17.7188 4.14427 17.7188 4.43555C17.7188 4.72682 17.9548 4.96289 18.2461 4.96289H23.3086C23.5999 4.96289 23.8359 4.72682 23.8359 4.43555C23.8359 4.14427 23.5999 3.9082 23.3086 3.9082Z" />
<path d="M26.4727 0.585938H0.527344C0.236069 0.585938 0 0.822006 0 1.11328V17.25C0 17.5413 0.236069 17.7773 0.527344 17.7773H11.3906V23.3672H8.75391C8.46263 23.3672 8.22656 23.6033 8.22656 23.8945C8.22656 24.1858 8.46263 24.4219 8.75391 24.4219H18.2461C18.5374 24.4219 18.7734 24.1858 18.7734 23.8945C18.7734 23.6033 18.5374 23.3672 18.2461 23.3672H15.6094V17.7773H26.4727C26.7639 17.7773 27 17.5413 27 17.25V12.082C27 11.7908 26.7639 11.5547 26.4727 11.5547C26.1814 11.5547 25.9453 11.7908 25.9453 12.082V16.7227H1.05469V1.64063H25.9453V7.33594C25.9453 7.62721 26.1814 7.86328 26.4727 7.86328C26.7639 7.86328 27 7.62721 27 7.33594V1.11328C27 0.822006 26.7639 0.585938 26.4727 0.585938ZM12.4453 23.3672V17.7773H14.5547V23.3672H12.4453Z" />
</svg>
