<svg width="23" height="14" viewBox="0 0 23 14"  xmlns="http://www.w3.org/2000/svg">
<path d="M7.69083 13.1264C7.42185 13.4032 7.15287 13.4032 6.8839 13.1264L0.22667 7.0364C-0.0759309 6.79034 -0.0759309 6.54428 0.22667 6.29822L6.8839 0.20824C7.15288 -0.0685761 7.42185 -0.0685761 7.69083 0.20824L8.6995 1.08483C9.0021 1.36164 9.0021 1.62308 8.6995 1.86914L4.6144 5.46775L22.0139 5.46776C22.4174 5.46776 22.6191 5.6523 22.6191 6.02139L22.6191 7.3132C22.6191 7.68229 22.4174 7.86683 22.0139 7.86683L4.6144 7.86683L8.6995 11.4654C9.0021 11.7115 9.0021 11.9729 8.6995 12.2498L7.69083 13.1264Z" />
</svg>
