<svg width="20" height="18" viewBox="0 0 20 18" fill="none" xmlns="http://www.w3.org/2000/svg">
<path d="M8.94924 0.774951C9.28629 -0.258319 10.7539 -0.258316 11.0909 0.774954L12.548 5.24173C12.6987 5.70382 13.131 6.01668 13.6188 6.01668H18.3339C19.4246 6.01668 19.8781 7.40693 18.9957 8.04553L15.1811 10.8061C14.7865 11.0917 14.6214 11.598 14.7721 12.06L16.2291 16.5268C16.5662 17.5601 15.3789 18.4193 14.4965 17.7807L10.6819 15.0201C10.2873 14.7345 9.75289 14.7345 9.35826 15.0201L5.54364 17.7807C4.66123 18.4193 3.47395 17.5601 3.811 16.5268L5.26806 12.06C5.41879 11.598 5.25366 11.0917 4.85904 10.8061L1.04441 8.04553C0.161998 7.40693 0.6155 6.01668 1.70622 6.01668H6.42136C6.90914 6.01668 7.34145 5.70382 7.49219 5.24173L8.94924 0.774951Z" fill="white" fill-opacity="0.1"/>
</svg>
