<svg width="20" height="18" viewBox="0 0 20 18" fill="none" xmlns="http://www.w3.org/2000/svg">
<path d="M9.30471 0.774951C9.64176 -0.258319 11.1093 -0.258316 11.4464 0.774954L12.9034 5.24173C13.0542 5.70382 13.4865 6.01668 13.9743 6.01668H18.6894C19.7801 6.01668 20.2336 7.40693 19.3512 8.04553L15.5366 10.8061C15.142 11.0917 14.9768 11.598 15.1276 12.06L16.5846 16.5268C16.9217 17.5601 15.7344 18.4193 14.852 17.7807L11.0374 15.0201C10.6427 14.7345 10.1084 14.7345 9.71373 15.0201L5.89911 17.7807C5.01669 18.4193 3.82942 17.5601 4.16647 16.5268L5.62353 12.06C5.77426 11.598 5.60913 11.0917 5.21451 10.8061L1.39988 8.04553C0.517467 7.40693 0.970969 6.01668 2.06169 6.01668H6.77683C7.26461 6.01668 7.69692 5.70382 7.84766 5.24173L9.30471 0.774951Z" fill="white" fill-opacity="0.4"/>
</svg>
