<svg width="19" height="19" viewBox="0 0 19 19"  xmlns="http://www.w3.org/2000/svg">
<path d="M18.8332 17.3873C19.0556 17.585 19.0556 17.7951 18.8332 18.0176L18.0176 18.8332C17.7951 19.0556 17.585 19.0556 17.3873 18.8332L12.9015 14.3473C12.8026 14.2485 12.7532 14.1496 12.7532 14.0507V13.5317C11.295 14.7922 9.61431 15.4224 7.71122 15.4224C5.58569 15.4224 3.76911 14.6686 2.26147 13.161C0.753822 11.6533 0 9.83675 0 7.71122C0 5.58569 0.753822 3.76911 2.26147 2.26147C3.76911 0.753823 5.58569 0 7.71122 0C9.83675 0 11.6533 0.753823 13.161 2.26147C14.6686 3.76911 15.4224 5.58569 15.4224 7.71122C15.4224 9.61431 14.7922 11.295 13.5317 12.7532H14.0507C14.1743 12.7532 14.2732 12.8026 14.3473 12.9015L18.8332 17.3873ZM3.5219 11.9005C4.68353 13.0621 6.07996 13.6429 7.71117 13.6429C9.34239 13.6429 10.7388 13.0621 11.9004 11.9005C13.0621 10.7389 13.6429 9.34243 13.6429 7.71122C13.6429 6.07999 13.0621 4.68357 11.9004 3.52195C10.7388 2.36032 9.34238 1.77951 7.71117 1.77951C6.07995 1.77951 4.68353 2.36032 3.5219 3.52195C2.36027 4.68358 1.77946 6.08 1.77946 7.71122C1.77946 9.34244 2.36027 10.7389 3.5219 11.9005Z"  fill-opacity="0.5"/>
</svg>
