<svg width="45" height="41" viewBox="0 0 45 41" xmlns="http://www.w3.org/2000/svg">
<path d="M30.4102 4.67768C30.4102 5.16314 30.8036 5.55659 31.2891 5.55659C31.7745 5.55659 32.168 5.16314 32.168 4.67768C32.168 4.19222 31.7745 3.79878 31.2891 3.79878C30.8036 3.79878 30.4102 4.19222 30.4102 4.67768Z" />
<path d="M33.9258 4.67768C33.9258 5.16314 34.3192 5.55659 34.8047 5.55659C35.2901 5.55659 35.6836 5.16314 35.6836 4.67768C35.6836 4.19222 35.2901 3.79878 34.8047 3.79878C34.3192 3.79878 33.9258 4.19222 33.9258 4.67768Z" />
<path d="M37.4414 4.67768C37.4414 5.16314 37.8349 5.55659 38.3203 5.55659C38.8058 5.55659 39.1992 5.16314 39.1992 4.67768C39.1992 4.19222 38.8058 3.79878 38.3203 3.79878C37.8349 3.79878 37.4414 4.19222 37.4414 4.67768Z" />
<path d="M6.67968 12.5879H38.3203C38.8058 12.5879 39.1992 12.9814 39.1992 13.4668V18.7403C39.1992 19.2257 38.8058 19.6192 38.3203 19.6192H6.67968C6.19423 19.6192 5.80078 19.2257 5.80078 18.7403V13.4668C5.80078 12.9814 6.19423 12.5879 6.67968 12.5879ZM7.55859 17.8614H37.4414V14.3458H7.55859V17.8614Z" />
<path d="M6.67969 23.1347H17.2266C17.712 23.1347 18.1055 23.5282 18.1055 24.0136V34.5605C18.1055 35.046 17.712 35.4394 17.2266 35.4394H6.67969C6.19423 35.4394 5.80078 35.046 5.80078 34.5605V24.0136C5.80078 23.5282 6.19423 23.1347 6.67969 23.1347ZM7.55859 33.6816H16.3477V24.8925H7.55859V33.6816Z" />
<path d="M2.63672 0.283203H18.5449C19.0304 0.283203 19.4238 0.676651 19.4238 1.16211C19.4238 1.64757 19.0304 2.04102 18.5449 2.04102H2.63672C2.15195 2.04102 1.75781 2.43515 1.75781 2.91992V7.31445H43.2422V2.91992C43.2422 2.43515 42.8481 2.04102 42.3633 2.04102H26.4551C25.9696 2.04102 25.5762 1.64757 25.5762 1.16211C25.5762 0.676651 25.9696 0.283203 26.4551 0.283203H42.3633C43.8173 0.283203 45 1.46595 45 2.91992V38.0762C45 39.5301 43.8173 40.7129 42.3633 40.7129H2.63672C1.18275 40.7129 0 39.5301 0 38.0762V2.91992C0 1.46595 1.18275 0.283203 2.63672 0.283203ZM2.63672 38.9551H42.3633C42.8481 38.9551 43.2422 38.5609 43.2422 38.0762V9.07227H1.75781V38.0762C1.75781 38.5609 2.15195 38.9551 2.63672 38.9551Z" />
</svg>
