<svg width="23" height="14" viewBox="0 0 23 14" fill="none" xmlns="http://www.w3.org/2000/svg">
<path d="M15.6568 0.207613C15.9258 -0.0692043 16.1948 -0.0692043 16.4638 0.207613L23.121 6.29759C23.4236 6.54365 23.4236 6.78971 23.121 7.03576L16.4638 13.1257C16.1948 13.4026 15.9258 13.4026 15.6568 13.1257L14.6482 12.2492C14.3456 11.9723 14.3456 11.7109 14.6482 11.4648L18.7333 7.86623H1.33372C0.93025 7.86623 0.728516 7.68168 0.728516 7.31259V6.02078C0.728516 5.65169 0.93025 5.46715 1.33372 5.46715H18.7333L14.6482 1.86854C14.3456 1.62248 14.3456 1.36104 14.6482 1.08422L15.6568 0.207613Z" fill="white" fill-opacity="0.5"/>
</svg>
