<svg width="27" height="27" viewBox="0 0 27 27" fill="none" xmlns="http://www.w3.org/2000/svg">
<path d="M8.75392 7.06148H18.2461C18.5374 7.06148 18.7735 6.82541 18.7735 6.53413C18.7735 6.24286 18.5374 6.00679 18.2461 6.00679H8.75392C8.46285 6.00679 8.22658 6.24286 8.22658 6.53413C8.22658 6.82541 8.46285 7.06148 8.75392 7.06148Z" fill="#A074FF"/>
<path d="M8.75392 10.2255H18.2461C18.5374 10.2255 18.7735 9.98948 18.7735 9.6982C18.7735 9.40692 18.5374 9.17085 18.2461 9.17085H8.75392C8.46285 9.17085 8.22658 9.40692 8.22658 9.6982C8.22658 9.98948 8.46285 10.2255 8.75392 10.2255Z" fill="#A074FF"/>
<path d="M8.75392 13.3896H18.2461C18.5374 13.3896 18.7735 13.1535 18.7735 12.8623C18.7735 12.571 18.5374 12.3349 18.2461 12.3349H8.75392C8.46285 12.3349 8.22658 12.571 8.22658 12.8623C8.22658 13.1535 8.46285 13.3896 8.75392 13.3896Z" fill="#A074FF"/>
<path d="M1.58203 26.9954H11.127C11.4182 26.9954 11.6543 26.7594 11.6543 26.4681C11.6543 26.1768 11.4182 25.9408 11.127 25.9408H1.58203C1.29137 25.9408 1.05469 25.7043 1.05469 25.4134V12.423C2.23524 13.4293 7.29918 17.7476 7.60776 18.0094L5.217 20.3999C5.011 20.6059 5.011 20.9398 5.217 21.1458C5.42299 21.3516 5.7567 21.3516 5.9629 21.1458L8.41278 18.6958L12.4612 22.1468C12.7576 22.4047 13.1288 22.5336 13.5 22.5336C13.8712 22.5336 14.2424 22.4047 14.5388 22.1468L18.5621 18.7172L21.0408 21.1493C21.2478 21.3522 21.5815 21.3512 21.7867 21.1421C21.9906 20.9343 21.9874 20.6004 21.7795 20.3964L19.3679 18.0302C20.2741 17.2577 25.0066 13.2235 25.9453 12.423V25.4134C25.9453 25.7043 25.7088 25.9408 25.418 25.9408H15.873C15.582 25.9408 15.3457 26.1768 15.3457 26.4681C15.3457 26.7594 15.582 26.9954 15.873 26.9954H25.418C26.2904 26.9954 27 26.2858 27 25.4134V11.2806C27 11.1294 26.931 10.9747 26.8074 10.8731L21.9375 6.87831V3.37044C21.9375 3.07917 21.7014 2.8431 21.4102 2.8431H17.3158L14.5419 0.389715C13.9478 -0.130213 13.0522 -0.130213 12.4562 0.391568L9.68438 2.8431H5.58984C5.29877 2.8431 5.0625 3.07937 5.0625 3.37044V6.87831L0.193016 10.8729C0.193222 10.8729 0.19281 10.8729 0.193016 10.8729C0.0716857 10.9726 0.00144196 11.1245 0 11.2757C0 11.2765 0.000205994 11.2775 0.000205994 11.2783C0.000205994 11.2792 0 11.28 0 11.2806V25.4134C0 26.2858 0.709854 26.9954 1.58203 26.9954ZM25.6507 11.2884L21.9375 14.4537V8.2424L25.6507 11.2884ZM13.1529 1.18341C13.3507 1.01017 13.6491 1.00996 13.8452 1.18155L15.7239 2.8431H11.2763L13.1529 1.18341ZM20.8828 3.89779V15.3529L13.8525 21.3461C13.8508 21.3475 13.8492 21.3489 13.8475 21.3504C13.6496 21.5234 13.3507 21.5234 13.1525 21.3504C13.151 21.3489 13.1492 21.3475 13.1475 21.3461L6.11719 15.3529C6.11719 14.7009 6.11719 4.38311 6.11719 3.89779H20.8828ZM5.0625 8.2424V14.4537L1.34946 11.2884L5.0625 8.2424Z" fill="#A074FF"/>
</svg>
