<svg width="45" height="44" viewBox="0 0 45 44" fill="none" xmlns="http://www.w3.org/2000/svg">
<path d="M16.8871 32.7607C20.0484 32.7607 23.0858 31.8653 25.7189 30.1656L39.3387 43.7493C39.6732 44.0829 40.2158 44.0832 40.5505 43.7493L44.1864 40.123C44.5212 39.7891 44.5212 39.2482 44.1864 38.9144L30.5669 25.3303C32.2711 22.7045 33.1688 19.6747 33.1688 16.5217C33.1688 15.0898 32.982 13.6729 32.6138 12.302L35.7142 9.20983C36.2243 9.51098 36.8188 9.68425 37.4535 9.68425C39.3434 9.68425 40.8812 8.15083 40.8812 6.26552C40.8812 4.38054 39.3434 2.84679 37.4535 2.84679C35.5636 2.84679 34.0258 4.38054 34.0258 6.26552C34.0258 6.89885 34.1998 7.49212 34.5021 8.00126L32.0076 10.4892C30.0842 5.69095 25.9304 2.01281 20.8825 0.735457C20.4236 0.619274 19.9577 0.896378 19.8412 1.35377C19.725 1.81149 20.0025 2.27656 20.4611 2.39241C25.2191 3.59631 29.0904 7.1843 30.6757 11.8176L26.3398 16.1421C25.8293 15.841 25.2345 15.667 24.5995 15.667C23.9772 15.667 23.3804 15.832 22.8582 16.1404L19.8388 13.129C20.1408 12.6199 20.3148 12.0269 20.3148 11.3936C20.3148 9.50864 18.777 7.97488 16.8871 7.97488C14.9971 7.97488 13.4594 9.50864 13.4594 11.3936C13.4594 12.0269 13.6334 12.6202 13.9357 13.1294L10.915 16.1421C10.4045 15.841 9.80968 15.667 9.17468 15.667C7.28474 15.667 5.74695 17.2008 5.74695 19.0858C5.74695 20.9711 7.28474 22.5045 9.17468 22.5045C11.0646 22.5045 12.6024 20.9711 12.6024 19.0858C12.6024 18.4531 12.4284 17.8602 12.1268 17.3513L15.1478 14.3379C15.6583 14.6391 16.2524 14.8123 16.8871 14.8123C17.5218 14.8123 18.1166 14.6387 18.6267 14.3376L21.6461 17.349C21.3371 17.8698 21.1718 18.4651 21.1718 19.0858C21.1718 20.9711 22.7095 22.5045 24.5995 22.5045C26.4894 22.5045 28.0272 20.9711 28.0272 19.0858C28.0272 18.4531 27.8532 17.8602 27.5516 17.3513L31.1855 13.7266C31.3642 14.6434 31.455 15.5789 31.455 16.5217C31.455 24.546 24.9352 31.0513 16.8871 31.0513C8.83057 31.0513 2.27637 24.5334 2.27637 16.5217C2.27637 9.88123 6.7823 4.07907 13.2341 2.4121C13.6923 2.29358 13.9675 1.82718 13.8487 1.37013C13.7298 0.913405 13.2622 0.638638 12.8043 0.757158C5.84068 2.55633 0.5625 8.894 0.5625 16.5217C0.5625 25.4758 7.8856 32.7607 16.8871 32.7607ZM37.4535 4.55615C38.3985 4.55615 39.1674 5.32303 39.1674 6.26552C39.1674 7.20801 38.3985 7.97488 37.4535 7.97488C36.5085 7.97488 35.7396 7.20801 35.7396 6.26552C35.7396 5.32303 36.5085 4.55615 37.4535 4.55615ZM9.17468 20.7951C8.22971 20.7951 7.46082 20.0282 7.46082 19.0858C7.46082 18.1433 8.22971 17.3764 9.17468 17.3764C10.1197 17.3764 10.8885 18.1433 10.8885 19.0858C10.8885 20.0282 10.1197 20.7951 9.17468 20.7951ZM15.1732 11.3936C15.1732 10.4511 15.9421 9.68425 16.8871 9.68425C17.8321 9.68425 18.601 10.4511 18.601 11.3936C18.601 12.3361 17.8321 13.103 16.8871 13.103C15.9421 13.103 15.1732 12.3361 15.1732 11.3936ZM24.5995 20.7951C23.6545 20.7951 22.8856 20.0282 22.8856 19.0858C22.8856 18.1419 23.6528 17.3764 24.5995 17.3764C25.5445 17.3764 26.3134 18.1433 26.3134 19.0858C26.3134 20.0282 25.5445 20.7951 24.5995 20.7951ZM39.9446 41.9365L30.4209 32.4375L32.8448 30.02L42.3685 39.5187L39.9446 41.9365ZM29.5483 26.7318L31.633 28.8111L29.2089 31.2289L27.1241 29.1496C28.0158 28.4302 28.8266 27.6212 29.5483 26.7318Z" fill="#A074FF"/>
</svg>
