<svg width="13" height="14" viewBox="0 0 13 14" fill="none" xmlns="http://www.w3.org/2000/svg">
<path d="M9.62502 8.75001C10.3542 8.75001 10.974 9.00522 11.4844 9.51564C11.9948 10.0261 12.25 10.6458 12.25 11.375C12.25 12.1042 11.9948 12.724 11.4844 13.2344C10.974 13.7448 10.3542 14 9.62502 14C8.89585 14 8.27606 13.7448 7.76564 13.2344C7.25522 12.724 7.00001 12.1042 7.00001 11.375C7.00001 11.1016 7.03647 10.8373 7.10939 10.582L4.42969 8.91408C3.91928 9.38804 3.31771 9.62502 2.62501 9.62502C1.89584 9.62502 1.27605 9.36981 0.765625 8.85939C0.255208 8.34897 0 7.72918 0 7.00001C0 6.27084 0.255208 5.65105 0.765625 5.14063C1.27604 4.63021 1.89583 4.37501 2.62501 4.37501C3.31771 4.37501 3.91927 4.61198 4.42969 5.08594L7.10939 3.41797C7.03647 3.16276 7.00001 2.89844 7.00001 2.625C7.00001 1.89584 7.25522 1.27605 7.76564 0.765625C8.27605 0.255208 8.89585 0 9.62502 0C10.3542 0 10.974 0.255208 11.4844 0.765625C11.9948 1.27604 12.25 1.89583 12.25 2.625C12.25 3.35417 11.9948 3.97396 11.4844 4.48438C10.974 4.9948 10.3542 5.25001 9.62502 5.25001C8.93231 5.25001 8.33074 5.01303 7.82032 4.53907L5.14064 6.20704C5.3047 6.73569 5.3047 7.26433 5.14064 7.79298L7.82032 9.46095C8.33074 8.98699 8.93231 8.75001 9.62502 8.75001V8.75001ZM10.5547 1.69532C10.2995 1.44011 9.9896 1.31251 9.62502 1.31251C9.26043 1.31251 8.95054 1.44011 8.69533 1.69532C8.44012 1.95053 8.31252 2.26043 8.31252 2.62501C8.31252 2.98959 8.44012 3.29949 8.69533 3.5547C8.95053 3.80991 9.26043 3.93751 9.62502 3.93751C9.9896 3.93751 10.2995 3.80991 10.5547 3.5547C10.8099 3.29949 10.9375 2.98959 10.9375 2.62501C10.9375 2.26043 10.8099 1.95053 10.5547 1.69532ZM1.69532 7.9297C1.95053 8.18491 2.26043 8.31251 2.62501 8.31251C2.98959 8.31251 3.29949 8.18491 3.5547 7.9297C3.80991 7.67449 3.93751 7.3646 3.93751 7.00001C3.93751 6.63543 3.80991 6.32553 3.5547 6.07033C3.29949 5.81512 2.98959 5.68751 2.62501 5.68751C2.26043 5.68751 1.95053 5.81512 1.69532 6.07033C1.44011 6.32553 1.31251 6.63543 1.31251 7.00001C1.31251 7.3646 1.44011 7.67449 1.69532 7.9297ZM8.69532 12.3047C8.95053 12.5599 9.26043 12.6875 9.62501 12.6875C9.98959 12.6875 10.2995 12.5599 10.5547 12.3047C10.8099 12.0495 10.9375 11.7396 10.9375 11.375C10.9375 11.0104 10.8099 10.7005 10.5547 10.4453C10.2995 10.1901 9.9896 10.0625 9.62501 10.0625C9.26043 10.0625 8.95053 10.1901 8.69532 10.4453C8.44011 10.7005 8.31251 11.0104 8.31251 11.375C8.31251 11.7396 8.44011 12.0495 8.69532 12.3047Z" fill="#8626DE"/>
</svg>
