<svg width="41" height="45" viewBox="0 0 41 45" fill="none" xmlns="http://www.w3.org/2000/svg">
<path d="M0.632812 33.0469C0.632812 34.9853 2.21004 36.5625 4.14844 36.5625C5.18218 36.5625 6.13387 36.1179 6.79031 35.366L17.0629 40.7352C17.0093 40.9807 16.9805 41.2324 16.9805 41.4844C16.9805 43.4228 18.5577 45 20.4961 45C22.4345 45 24.0117 43.4228 24.0117 41.4844C24.0117 41.2324 23.9829 40.9807 23.9293 40.7349L34.2022 35.3657C34.859 36.1182 35.8107 36.5625 36.8438 36.5625C38.7822 36.5625 40.3594 34.9853 40.3594 33.0469C40.3594 31.4116 39.2374 30.0339 37.7227 29.6425V26.4551C37.7227 25.9696 37.3292 25.5762 36.8438 25.5762C36.3583 25.5762 35.9648 25.9696 35.9648 26.4551V29.6428C35.4121 29.7853 34.9023 30.0603 34.48 30.4445L28.2737 26.5955C28.937 25.3393 29.2852 23.9402 29.2852 22.5C29.2852 21.0598 28.937 19.6607 28.2737 18.4045L34.48 14.5552C34.9026 14.9397 35.4121 15.2147 35.9648 15.3572V18.5449C35.9648 19.0304 36.3583 19.4238 36.8438 19.4238C37.3292 19.4238 37.7227 19.0304 37.7227 18.5449V15.3575C39.2374 14.9661 40.3594 13.5884 40.3594 11.9531C40.3594 10.0147 38.7822 8.4375 36.8438 8.4375C35.8107 8.4375 34.859 8.88176 34.2022 9.63432L23.9293 4.2651C23.9829 4.01928 24.0117 3.76762 24.0117 3.51562C24.0117 1.57722 22.4345 0 20.4961 0C18.5577 0 16.9805 1.57722 16.9805 3.51562C16.9805 3.76762 17.009 4.01928 17.0629 4.2651L6.78996 9.63432C6.13319 8.88176 5.1815 8.4375 4.14844 8.4375C2.21004 8.4375 0.632812 10.0147 0.632812 11.9531C0.632812 13.5884 1.75479 14.9661 3.26953 15.3575V29.6425C1.75479 30.0339 0.632812 31.4116 0.632812 33.0469ZM4.14844 34.8047C3.17924 34.8047 2.39062 34.0161 2.39062 33.0469C2.39062 32.0777 3.17924 31.2891 4.14844 31.2891C5.12176 31.2891 5.90625 32.0801 5.90625 33.0469C5.90625 34.0089 5.13103 34.8047 4.14844 34.8047ZM6.51221 14.5552L12.7185 18.4045C12.0552 19.6607 11.707 21.0598 11.707 22.5C11.707 23.9402 12.0552 25.3396 12.7185 26.5955L6.51221 30.4448C6.08958 30.0603 5.58009 29.7853 5.02734 29.6428V15.3572C5.58009 15.2147 6.08993 14.9397 6.51221 14.5552ZM19.6172 6.91933V13.7552C17.2956 13.987 15.1667 15.1299 13.6901 16.9385L7.47523 13.084C7.59849 12.7225 7.66406 12.3418 7.66406 11.9531C7.66406 11.7011 7.63522 11.4495 7.58167 11.2037L17.8542 5.83443C18.3194 6.36726 18.9319 6.74423 19.6172 6.91933ZM23.138 5.83477L33.4105 11.2037C33.3566 11.4495 33.3281 11.7011 33.3281 11.9531C33.3281 12.3418 33.3937 12.7225 33.517 13.084L27.3021 16.9385C25.8251 15.1299 23.6962 13.987 21.375 13.7552V6.91933C22.0606 6.74423 22.6734 6.36692 23.138 5.83477ZM33.4105 33.7963L23.1376 39.1656C22.6728 38.6327 22.0603 38.2558 21.375 38.0807V31.2444C23.7789 31.0055 25.8828 29.8004 27.3021 28.0615L33.517 31.916C33.3937 32.2775 33.3281 32.6582 33.3281 33.0469C33.3281 33.2992 33.357 33.5509 33.4105 33.7963ZM17.8542 39.1652L7.58167 33.796C7.63522 33.5505 7.66406 33.2989 7.66406 33.0469C7.66406 32.6582 7.59849 32.2775 7.47523 31.916L13.6901 28.0615C15.109 29.7997 17.2126 31.0055 19.6172 31.2444V38.0807C18.9316 38.2558 18.3191 38.6331 17.8542 39.1652ZM20.4961 29.5312C19.2945 29.5312 18.1285 29.2288 17.091 28.6527C17.481 27.1177 18.8619 26.0156 20.4961 26.0156C22.1303 26.0156 23.5112 27.1177 23.9012 28.6527C22.864 29.2288 21.6981 29.5312 20.4961 29.5312ZM25.3874 27.5496C24.6043 25.5995 22.704 24.2578 20.4961 24.2578C18.2882 24.2578 16.3879 25.5995 15.6048 27.5496C14.2771 26.2642 13.4648 24.4769 13.4648 22.5C13.4648 18.616 16.6117 15.4688 20.4961 15.4688C24.3787 15.4688 27.5273 18.615 27.5273 22.5C27.5273 24.3835 26.7823 26.199 25.3874 27.5496ZM20.4961 43.2422C19.5269 43.2422 18.7383 42.4536 18.7383 41.4844C18.7383 40.521 19.5152 39.7266 20.4961 39.7266C21.4976 39.7266 22.2539 40.543 22.2539 41.4844C22.2539 42.4536 21.4653 43.2422 20.4961 43.2422ZM36.8438 31.2891C37.813 31.2891 38.6016 32.0777 38.6016 33.0469C38.6016 34.0161 37.813 34.8047 36.8438 34.8047C35.8509 34.8047 35.0859 33.9972 35.0859 33.0469C35.0859 32.0808 35.8691 31.2891 36.8438 31.2891ZM36.8438 10.1953C37.813 10.1953 38.6016 10.9839 38.6016 11.9531C38.6016 12.9223 37.813 13.7109 36.8438 13.7109C35.8697 13.7109 35.0859 12.9199 35.0859 11.9531C35.0859 11.0114 35.8423 10.1953 36.8438 10.1953ZM20.4961 1.75781C21.4653 1.75781 22.2539 2.54642 22.2539 3.51562C22.2539 4.47899 21.477 5.27344 20.4961 5.27344C19.4946 5.27344 18.7383 4.45702 18.7383 3.51562C18.7383 2.54642 19.5269 1.75781 20.4961 1.75781ZM2.39062 11.9531C2.39062 10.9839 3.17924 10.1953 4.14844 10.1953C5.14991 10.1953 5.90625 11.0117 5.90625 11.9531C5.90625 12.9192 5.12313 13.7109 4.14844 13.7109C3.17924 13.7109 2.39062 12.9223 2.39062 11.9531Z" fill="#A074FF"/>
<path d="M24.0117 20.7421C24.0117 18.8037 22.4345 17.2265 20.4961 17.2265C18.5577 17.2265 16.9805 18.8037 16.9805 20.7421C16.9805 22.6805 18.5577 24.2578 20.4961 24.2578C22.4345 24.2578 24.0117 22.6805 24.0117 20.7421ZM20.4961 22.5C19.5269 22.5 18.7383 21.7113 18.7383 20.7421C18.7383 19.7729 19.5269 18.9843 20.4961 18.9843C21.4653 18.9843 22.2539 19.7729 22.2539 20.7421C22.2539 21.7113 21.4653 22.5 20.4961 22.5Z" fill="#A074FF"/>
</svg>
