<svg width="27" height="25" viewBox="0 0 27 25" fill="none" xmlns="http://www.w3.org/2000/svg">
<path d="M10.0832 3.59961C9.91386 3.6921 9.80859 3.86967 9.80859 4.06248V13.5547C9.80859 13.7475 9.91386 13.925 10.0832 14.0175C10.2505 14.1088 10.4566 14.1038 10.621 13.9982L18.0038 9.25208C18.1548 9.15505 18.2461 8.98799 18.2461 8.80857C18.2461 8.62915 18.1548 8.46189 18.0038 8.36486L10.621 3.61877C10.4587 3.51454 10.2525 3.50712 10.0832 3.59961ZM10.8633 5.02838L16.7436 8.80857L10.8633 12.5888V5.02838Z" fill="#A074FF"/>
<path d="M23.3086 19.8828H10.7965C10.5617 18.974 9.73505 18.3008 8.75391 18.3008C7.77276 18.3008 6.94611 18.974 6.71127 19.8828H3.69141C3.40013 19.8828 3.16406 20.1189 3.16406 20.4102C3.16406 20.7014 3.40013 20.9375 3.69141 20.9375H6.71127C6.94611 21.8463 7.77276 22.5195 8.75391 22.5195C9.73505 22.5195 10.5617 21.8463 10.7965 20.9375H23.3086C23.5999 20.9375 23.8359 20.7014 23.8359 20.4102C23.8359 20.1189 23.5999 19.8828 23.3086 19.8828ZM8.75391 21.4648C8.17239 21.4648 7.69922 20.9917 7.69922 20.4102C7.69922 19.8286 8.17239 19.3555 8.75391 19.3555C9.33543 19.3555 9.80859 19.8286 9.80859 20.4102C9.80859 20.9917 9.33543 21.4648 8.75391 21.4648Z" fill="#A074FF"/>
<path d="M25.418 0.371094H15.873C15.5818 0.371094 15.3457 0.607162 15.3457 0.898438C15.3457 1.18971 15.5818 1.42578 15.873 1.42578H25.418C25.7088 1.42578 25.9453 1.66226 25.9453 1.95313V16.1914H1.05469V1.95313C1.05469 1.66226 1.29117 1.42578 1.58203 1.42578H11.127C11.4182 1.42578 11.6543 1.18971 11.6543 0.898438C11.6543 0.607162 11.4182 0.371094 11.127 0.371094H1.58203C0.709648 0.371094 0 1.08074 0 1.95313V23.0469C0 23.9193 0.709648 24.6289 1.58203 24.6289H25.418C26.2904 24.6289 27 23.9193 27 23.0469V1.95313C27 1.08074 26.2904 0.371094 25.418 0.371094ZM25.418 23.5742H1.58203C1.29117 23.5742 1.05469 23.3377 1.05469 23.0469V17.2461H25.9453V23.0469C25.9453 23.3377 25.7088 23.5742 25.418 23.5742Z" fill="#A074FF"/>
</svg>
